<svg xmlns="http://www.w3.org/2000/svg" viewBox="0 0 128 128">
  <path fill="#252F3E" d="M38.089 77.466c0 2.116-.045 3.853-.134 5.204-.089 1.35-.223 2.674-.446 3.953-.224 1.342-.67 2.45-1.341 3.347-.67.88-1.621 1.342-2.848 1.342-1.117 0-2.179-.352-3.157-1.006-.978-.67-1.843-1.621-2.606-2.865l-3.291 2.18c1.117 1.959 2.472 3.402 4.063 4.358 1.592.94 3.376 1.426 5.353 1.426 2.267 0 4.08-.542 5.442-1.639 1.362-1.096 2.382-2.534 3.06-4.296.667-1.777 1.112-3.77 1.342-6.015.22-2.23.343-4.5.343-6.785v-22.735h-5.78v22.735zm-11.915.562l-1.246-3.358H14.652l-1.246 3.358H8l9.253-23.5h6.04l9.252 23.5h-5.371zm-3.023-8.13l-3.98-10.634-3.98 10.633h7.96zm32.931-3.957c0-3.496-1.003-6.246-3.023-8.227-2.006-1.996-4.745-2.988-8.227-2.988-1.695 0-3.157.21-4.402.636-1.228.41-2.428 1.11-3.583 2.085v-9.624h-5.78v35.238h5.78V68.869c.83-.895 1.815-1.592 2.955-2.1 1.14-.525 2.414-.774 3.822-.774 1.934 0 3.428.618 4.475 1.843 1.047 1.228 1.577 3.022 1.577 5.398v14.627h5.78V66.047h.626zm18.614-10.86c-1.398 0-2.682.26-3.867.774-1.185.524-2.24 1.23-3.157 2.14v-2.31h-5.78v23.5h5.78V68.683c.85-1.051 1.78-1.844 2.786-2.383 1.006-.525 2.116-.774 3.337-.774.626 0 1.3.044 2.011.15.71.105 1.36.3 1.962.58l1.247-5.353c-.626-.254-1.295-.46-2.012-.606-.717-.134-1.463-.21-2.263-.21h-.044zm16.688 0c-1.398 0-2.681.26-3.866.774-1.186.524-2.24 1.23-3.157 2.14v-2.31h-5.78v23.5h5.78V68.683c.85-1.051 1.78-1.844 2.786-2.383 1.006-.525 2.116-.774 3.337-.774.626 0 1.3.044 2.011.15.71.105 1.361.3 1.963.58l1.246-5.353c-.626-.254-1.295-.46-2.012-.606-.716-.134-1.462-.21-2.263-.21h-.044zm22.21 23.962c-1.784 0-3.337-.344-4.67-1.036-1.335-.69-2.472-1.621-3.428-2.794-.94-1.171-1.666-2.533-2.175-4.094-.51-1.576-.76-3.217-.76-4.937 0-1.718.25-3.36.76-4.936.51-1.56 1.236-2.922 2.175-4.093.956-1.172 2.093-2.104 3.428-2.794 1.333-.69 2.886-1.036 4.67-1.036 1.767 0 3.32.344 4.653 1.036 1.334.69 2.487 1.622 3.442 2.794.956 1.171 1.682 2.533 2.191 4.094.51 1.575.765 3.217.765 4.936 0 1.72-.255 3.36-.765 4.937-.51 1.56-1.235 2.922-2.19 4.093-.956 1.173-2.109 2.104-3.443 2.794-1.333.692-2.886 1.036-4.653 1.036zm0-4.936c.895 0 1.695-.195 2.398-.58.702-.4 1.29-.94 1.755-1.636.48-.7.835-1.531 1.081-2.488.245-.956.365-1.979.365-3.067 0-1.097-.12-2.116-.365-3.073-.246-.956-.6-1.786-1.08-2.487-.466-.701-1.054-1.246-1.756-1.637-.703-.385-1.503-.58-2.398-.58-.896 0-1.711.195-2.398.58-.702.39-1.29.936-1.756 1.637-.48.7-.835 1.53-1.081 2.487-.245.957-.365 1.976-.365 3.073 0 1.088.12 2.111.365 3.067.246.957.6 1.787 1.08 2.488.467.695 1.055 1.235 1.757 1.636.687.385 1.502.58 2.398.58zm31.835 4.342V66.134c0-1.695-.195-3.202-.58-4.535-.385-1.334-.956-2.443-1.725-3.337-.77-.896-1.711-1.577-2.832-2.042-1.106-.466-2.353-.7-3.732-.7-1.5 0-2.891.285-4.186.85-1.279.567-2.397 1.427-3.337 2.608v-2.853h-5.78v23.5h5.78V68.869c.716-1.112 1.577-1.979 2.607-2.607 1.03-.626 2.145-.94 3.337-.94 1.874 0 3.247.514 4.125 1.532.88 1.022 1.32 2.576 1.32 4.67v14.338h5.78V66.135h.224zm15.97 0c1.398 0 2.577-.224 3.562-.67.985-.447 1.785-1.052 2.398-1.815.612-.762 1.05-1.637 1.32-2.622.267-.986.402-2.011.402-3.067v-12.766h-5.78v12.168c0 1.68-.28 2.921-.85 3.732-.567.81-1.456 1.216-2.668 1.216-.746 0-1.442-.15-2.085-.446-.642-.3-1.217-.73-1.725-1.306-.51-.567-.896-1.26-1.171-2.07-.28-.81-.417-1.726-.417-2.742v-11.55h-5.78v23.5h5.78v-2.31c.895 1.006 1.934 1.755 3.112 2.264 1.171.51 2.457.774 3.867.774h.03zm16.959.58c1.398 0 2.681-.26 3.866-.774 1.186-.524 2.24-1.23 3.157-2.14v2.31h5.78v-23.5h-5.78v14.18c-.85 1.05-1.78 1.844-2.786 2.383-1.006.525-2.116.774-3.337.774-.626 0-1.3-.044-2.011-.15-.71-.105-1.36-.3-1.963-.58l-1.246 5.353c.626.254 1.295.46 2.011.606.717.134 1.463.21 2.264.21h.044zm25.246-6.785c-.716.895-1.547 1.606-2.502 2.116-.956.51-2.011.76-3.157.76-1.784 0-3.187-.67-4.206-2.012-1.02-1.34-1.532-3.217-1.532-5.63 0-1.112.106-2.145.316-3.097.21-.956.53-1.785.956-2.473.425-.7.97-1.246 1.621-1.651.656-.4 1.413-.596 2.279-.596.895 0 1.71.195 2.412.58.702.39 1.29.936 1.755 1.636.481.701.836 1.532 1.082 2.488.246.957.365 1.978.365 3.067v1.65h-13.215c.12 1.784.566 3.097 1.35 3.926.78.835 1.904 1.245 3.337 1.245 1.14 0 2.145-.224 3.022-.67.88-.447 1.681-1.097 2.428-1.96l3.69 3.621zm-2.339-10.275c-.075-1.68-.43-2.921-1.08-3.733-.642-.81-1.562-1.216-2.758-1.216-.686 0-1.29.14-1.815.417a3.67 3.67 0 00-1.261 1.081 5.062 5.062 0 00-.775 1.577c-.18.58-.285 1.186-.315 1.814h7.959l.045.06zM54.207 112.432c-1.112.895-2.428 1.606-3.957 2.116-1.532.51-3.217.76-5.056.76-2.532 0-4.8-.476-6.785-1.426-2-0.95-3.711-2.264-5.145-3.957-1.428-1.695-2.532-3.711-3.307-6.026-.78-2.324-1.172-4.833-1.172-7.518 0-2.684.392-5.204 1.172-7.547.775-2.339 1.874-4.387 3.307-6.13 1.434-1.754 3.157-3.127 5.176-4.123 2.02-.996 4.273-1.501 6.756-1.501 1.695 0 3.277.225 4.76.67 1.487.447 2.832 1.097 4.065 1.96l-2.428 4.475c-.97-.746-2.056-1.32-3.262-1.725-1.2-.4-2.532-.596-3.986-.596-1.695 0-3.217.314-4.535.94-1.32.627-2.428 1.501-3.338 2.608-.895 1.096-1.591 2.398-2.07 3.867-.48 1.486-.716 3.067-.716 4.774 0 1.71.236 3.292.716 4.773.48 1.488 1.175 2.772 2.07 3.867.91 1.112 2.019 1.99 3.338 2.623 1.318.63 2.84.95 4.535.95 1.605 0 3.112-.256 4.535-.776 1.413-.51 2.623-1.26 3.621-2.22l2.428 4.13h-.494zm30.82-7.756h-15.065c.12 1.784.552 3.097 1.306 3.926.76.835 1.859 1.245 3.292 1.245 1.112 0 2.1-.225 2.966-.67.87-.447 1.636-1.097 2.339-1.96l3.666 3.621c-.701.896-1.517 1.606-2.458 2.116-.94.51-1.975.76-3.112.76-1.754 0-3.157-.67-4.186-2.012-1.02-1.34-1.517-3.217-1.517-5.63 0-1.112.105-2.145.316-3.097.21-.956.53-1.785.956-2.473.425-.7.97-1.246 1.621-1.651.656-.4 1.413-.596 2.279-.596.895 0 1.71.195 2.412.58.702.39 1.29.936 1.755 1.636.481.701.836 1.532 1.081 2.488.246.957.365 1.978.365 3.067v1.65h.984zm-5.5-4.788c-.076-1.68-.43-2.921-1.082-3.733-.641-.81-1.561-1.216-2.757-1.216-.686 0-1.29.14-1.815.417a3.67 3.67 0 00-1.261 1.081 5.062 5.062 0 00-.775 1.577c-.18.58-.285 1.186-.315 1.814h7.959l.045.06zm18.539 14.128V99.878c0-1.695-.195-3.202-.58-4.535-.385-1.334-.956-2.443-1.725-3.337-.77-.896-1.711-1.577-2.832-2.042-1.106-.466-2.353-.7-3.732-.7-1.5 0-2.891.285-4.186.85-1.279.567-2.397 1.427-3.337 2.608v-2.853h-5.78v23.5h5.78v-14.993c.716-1.112 1.577-1.979 2.607-2.607 1.03-.626 2.145-.94 3.337-.94 1.874 0 3.247.514 4.125 1.532.88 1.022 1.32 2.576 1.32 4.67v14.338h5.78V99.878h.224zm13.365.671c-1.695 0-3.053-.194-4.065-.596-1.02-.385-1.814-.925-2.398-1.606a5.579 5.579 0 01-1.215-2.384c-.21-.895-.316-1.844-.316-2.847V91.94h-3.157v-4.788h3.157v-6.875h5.78v6.875h5.5v4.788h-5.5v8.086c0 1.695.224 2.861.686 3.487.447.627 1.38.94 2.757.94.582 0 1.142-.075 1.682-.224.54-.15 1.006-.33 1.381-.552l1.5 4.623c-.686.33-1.442.596-2.294.8-.836.21-1.83.314-2.981.314h-.044l-.434-.06h-.04zm12.378 0c-1.397 0-2.681-.26-3.866-.774-1.185-.524-2.24-1.23-3.157-2.14v2.31h-5.78v-23.5h5.78v14.18c.85 1.05 1.78 1.844 2.786 2.383 1.006.525 2.116.774 3.337.774.626 0 1.3-.044 2.011-.15.71-.105 1.361-.3 1.963-.58l1.246 5.353c-.626.254-1.295.46-2.011.606-.717.134-1.463.21-2.264.21h-.044zm13.394.58c-1.784 0-3.337-.344-4.67-1.036-1.335-.69-2.472-1.621-3.428-2.794-.94-1.171-1.666-2.533-2.175-4.094-.51-1.576-.76-3.217-.76-4.937 0-1.718.25-3.36.76-4.936.51-1.56 1.235-2.922 2.175-4.093.956-1.172 2.093-2.104 3.428-2.794 1.333-.69 2.886-1.036 4.67-1.036 1.767 0 3.32.344 4.653 1.036 1.334.69 2.487 1.622 3.442 2.794.956 1.171 1.682 2.533 2.191 4.094.51 1.575.765 3.217.765 4.936 0 1.72-.255 3.36-.765 4.937-.51 1.56-1.235 2.922-2.19 4.093-.956 1.173-2.109 2.104-3.443 2.794-1.333.692-2.886 1.036-4.653 1.036zm0-4.936c.895 0 1.695-.195 2.398-.58.702-.4 1.29-.94 1.755-1.636.48-.7.835-1.531 1.081-2.488.245-.956.365-1.979.365-3.067 0-1.097-.12-2.116-.365-3.073-.246-.956-.6-1.786-1.08-2.487-.466-.701-1.054-1.246-1.756-1.637-.703-.385-1.503-.58-2.398-.58-.896 0-1.711.195-2.398.58-.702.39-1.29.936-1.756 1.637-.48.7-.835 1.53-1.081 2.487-.245.957-.365 1.976-.365 3.073 0 1.088.12 2.111.365 3.067.246.957.6 1.787 1.08 2.488.467.695 1.055 1.235 1.757 1.636.687.385 1.502.58 2.398.58z"/>
</svg>
